<svg xmlns="http://www.w3.org/2000/svg" width="24" height="24" viewBox="0 0 24 24"><g id="Group_25478" data-name="Group 25478" transform="translate(-4138 -246)"><rect id="Rectangle_7552" data-name="Rectangle 7552" width="24" height="24" transform="translate(4138 246)" fill="none"/><path id="Path_116113" data-name="Path 116113" d="M16.18,18.877a.9.9,0,0,1-1.8,0,6.292,6.292,0,0,0-12.584,0,.9.9,0,0,1-1.8,0,8.09,8.09,0,1,1,16.18,0ZM8.09,9.888a4.944,4.944,0,1,1,4.944-4.944A4.944,4.944,0,0,1,8.09,9.888Zm0-1.8A3.146,3.146,0,1,0,4.944,4.944,3.146,3.146,0,0,0,8.09,8.09" transform="translate(4141.5 248.5)" fill="#00aeef" stroke="#00aeef" stroke-width="0.2"/></g></svg>